<svg xmlns="http://www.w3.org/2000/svg" viewBox="0 0 266.77 265.62"><defs><style>.cls-1{fill:#fff;}</style></defs><g id="Camada_2" data-name="Camada 2"><g id="Camada_1-2" data-name="Camada 1"><path class="cls-1" d="M235.71,161c5.43,2.77,9.84,4.73,13.95,7.18,23,13.65,22.78,39.54-.87,52.18-7.79,4.16-12.49,7.48-13.76,17.74-1.91,15.43-14.29,23.57-29.07,26.38-25.31,4.82-46.64-7.26-56.6-31.14-6-14.36-8-29.6-8.67-44.88-1.43-30.33-.64-60.61,5.85-90.45,3.11-14.32,8-27.82,19.3-38.07,17.73-16.08,48.17-14.23,62.8,3.94,5.44,6.75,8.21,14.51,7.49,23.19-.31,3.84,1,5.66,4.51,7a41,41,0,0,1,22.12,18.53c6.41,11.36,5.19,25-4.13,34.09-5,4.86-11.59,8.13-17.52,12C239.79,159.57,238.18,160,235.71,161Zm-80.61,2.89c3.1-1.28,6.11-2.59,9.16-3.8,16.35-6.47,33.77-6.92,50.89-9,11.62-1.45,23.2-3.24,32.24-11.73,7.73-7.26,8.08-15.75,1.18-23.86-6.15-7.22-14.26-10.6-23.4-12.12-6.45-1.07-6.43-1.19-4.07-7.4,6.29-16.49-4.49-32.74-22.17-33.45-16.16-.64-27.41,6.53-34.1,21.76-7,16-8.64,33.07-9.63,50.2C154.65,144.07,155.1,153.72,155.1,163.93Zm63.5,52.28c2.29-.47,4.21-.93,6.15-1.25,8.51-1.37,16.48-4,22.95-10,8.07-7.51,7.72-16.34-1.32-22.68a57.7,57.7,0,0,0-14-7.49c-25.25-8.75-50-6.38-74.44,3.74-2.93,1.22-4.08,3.05-3.85,6.12.41,5.3.47,10.65,1.07,15.93,1.36,11.95,3.48,23.7,9.84,34.24a36.12,36.12,0,0,0,42.44,15.63c13.65-4.7,18.75-16.11,13.08-29.27C219.89,219.66,219.34,218.12,218.6,216.21Z"/><path class="cls-1" d="M30.89,161.19c-4.28-2-7.9-3.48-11.37-5.29-18.81-9.78-25-29.3-14.32-45.61,5.19-8,12.64-13.22,21.4-16.53,3.06-1.15,4-2.75,3.77-5.9C28.78,65.24,49.7,45.74,76.63,49.49c23.52,3.27,35.89,18.8,41.07,40.17a327.75,327.75,0,0,1,7.71,49.19c2.28,26.42,2.22,52.94-3.4,79.08-3.48,16.2-9.93,30.76-24.64,40.14-18.46,11.78-44.52,9.52-58.18-5C33.36,246.86,30,239.59,30.4,231c.19-3.57-.89-5.25-4.35-6.5-8.25-3-15.59-7.56-20.73-15-8.33-12-6.84-26.58,4.35-35.89,4.79-4,10.66-6.69,16.07-9.91C27.13,162.87,28.65,162.28,30.89,161.19Zm17-59.07c-3.37.62-6,1-8.56,1.59-7.79,1.71-14.84,4.8-20.37,10.79-8.19,8.87-7.51,18.84,1.9,26.34,6.85,5.45,14.91,7.95,23.4,9.15,14.81,2.11,29.71,3.6,44.41,6.24,7.88,1.42,15.42,4.73,23.44,7.29a22.75,22.75,0,0,0,.36-3.71c-.69-13.62-.55-27.36-2.44-40.81a163.6,163.6,0,0,0-8.87-35.61c-5.82-15.18-18-21.71-34-20.83-17.25.95-27.72,16.82-21.74,32.94C46.16,97.49,46.88,99.49,47.85,102.12Zm.31,114c-.75,1.85-1.17,2.91-1.61,4-6.42,15.24-.61,27,15.39,31.07,17.41,4.46,34.52-4.18,42.42-21.61,6.17-13.61,7.28-28.19,8.16-42.86.3-5-1.4-7.45-6-9.27a109.53,109.53,0,0,0-58.26-6.59C37.81,172.51,27.92,176,19.49,182.7c-7.71,6.13-8.36,13.4-1.93,20.65,5.17,5.82,11.9,8.93,19.35,10.62C40.46,214.77,44.05,215.37,48.16,216.16Z"/><path class="cls-1" d="M124.06,62.89c-3.72-7-7.11-15-12-22C103.58,28.72,91,21.86,77,17.62a7.59,7.59,0,0,0-5,.81c-5.91,2.9-11.87,1.35-14.52-4A9.89,9.89,0,0,1,61.85,1.14C67.14-1.6,72.75.74,76,6.55a8.87,8.87,0,0,0,4.59,3.7c23.5,8.06,38.59,23.49,43,48.42C123.88,60.37,124,62.1,124.06,62.89Z"/><path class="cls-1" d="M142.66,63.79C145,40.11,156.78,23,178.75,13.16c2.11-.95,4.52-1.35,6.46-2.54,2.21-1.36,4.62-3,5.95-5.09,3.1-4.93,8.6-6.95,13.68-4.35a9.93,9.93,0,0,1,4.23,13.26c-2.48,5.13-8.42,7.3-13.49,4.29-3-1.77-5.32-1.5-8.31-.43C163.87,26.65,153.81,36.93,142.66,63.79Z"/></g></g></svg>