<?xml version="1.0" encoding="utf-8"?>
<!-- Generator: Adobe Illustrator 25.0.0, SVG Export Plug-In . SVG Version: 6.00 Build 0)  -->
<svg version="1.1" id="Camada_1" xmlns="http://www.w3.org/2000/svg" xmlns:xlink="http://www.w3.org/1999/xlink" x="0px" y="0px"
	 viewBox="0 0 266.8 265.6" style="enable-background:new 0 0 266.8 265.6;" xml:space="preserve">
<style type="text/css">
	.st0{fill:url(#SVGID_1_);}
	.st1{fill:url(#SVGID_2_);}
	.st2{fill:url(#SVGID_3_);}
	.st3{fill:url(#SVGID_4_);}
</style>
<g>
	<linearGradient id="SVGID_1_" gradientUnits="userSpaceOnUse" x1="140.0856" y1="157.2504" x2="266.7647" y2="157.2504">
		<stop  offset="0" style="stop-color:#F75C9E"/>
		<stop  offset="1" style="stop-color:#E788BC"/>
	</linearGradient>
	<path class="st0" d="M249.7,168.2c-4.1-2.5-8.5-4.4-14-7.2c2.5-1,4.1-1.4,5.4-2.3c5.9-3.9,12.5-7.1,17.5-12
		c9.3-9.1,10.5-22.7,4.1-34.1c-4.9-8.7-12.7-15.2-22.1-18.5c-3.5-1.3-4.8-3.2-4.5-7c0.7-8.7-2.1-16.4-7.5-23.2
		c-14.6-18.2-45.1-20-62.8-3.9c-11.3,10.2-16.2,23.8-19.3,38.1c-6.5,29.8-7.3,60.1-5.9,90.5c0.7,15.3,2.7,30.5,8.7,44.9
		c10,23.9,31.3,36,56.6,31.1c14.8-2.8,27.2-11,29.1-26.4c1.3-10.3,6-13.6,13.8-17.7C272.4,207.7,272.7,181.8,249.7,168.2z
		 M155.2,134.5c1-17.1,2.6-34.2,9.6-50.2c6.7-15.2,17.9-22.4,34.1-21.8c17.7,0.7,28.5,17,22.2,33.5c-2.4,6.2-2.4,6.3,4.1,7.4
		c9.1,1.5,17.2,4.9,23.4,12.1c6.9,8.1,6.5,16.6-1.2,23.9c-9,8.5-20.6,10.3-32.2,11.7c-17.1,2.1-34.5,2.5-50.9,9
		c-3,1.2-6.1,2.5-9.2,3.8v0C155.1,153.7,154.7,144.1,155.2,134.5z M247.7,204.9c-6.5,6-14.4,8.6-23,10c-1.9,0.3-3.9,0.8-6.1,1.2v0
		c0.7,1.9,1.3,3.4,1.9,4.9c5.7,13.2,0.6,24.6-13.1,29.3c-16.1,5.4-33.7-1.1-42.4-15.6c-6.4-10.5-8.5-22.3-9.8-34.2
		c-0.6-5.3-0.7-10.6-1.1-15.9c-0.2-3.1,0.9-4.9,3.9-6.1c24.4-10.1,49.2-12.5,74.4-3.7c5,1.8,9.7,4.4,14,7.5
		C255.4,188.6,255.8,197.4,247.7,204.9z"/>
	<linearGradient id="SVGID_2_" gradientUnits="userSpaceOnUse" x1="-1.448899e-02" y1="157.3225" x2="126.8191" y2="157.3225">
		<stop  offset="0.2123" style="stop-color:#E788BC"/>
		<stop  offset="1" style="stop-color:#F75C9E"/>
	</linearGradient>
	<path class="st1" d="M117.7,89.7c-5.2-21.4-17.5-36.9-41.1-40.2c-26.9-3.8-47.8,15.8-46.3,38.4c0.2,3.2-0.7,4.8-3.8,5.9
		c-8.8,3.3-16.2,8.5-21.4,16.5c-10.7,16.3-4.5,35.8,14.3,45.6c3.5,1.8,7.1,3.3,11.4,5.3c-2.2,1.1-3.8,1.7-5.2,2.5
		c-5.4,3.2-11.3,5.9-16.1,9.9c-11.2,9.3-12.7,23.9-4.3,35.9c5.1,7.4,12.5,12,20.7,15c3.5,1.2,4.5,2.9,4.4,6.5
		c-0.4,8.6,3,15.9,8.8,22.1c13.7,14.5,39.7,16.8,58.2,5c14.7-9.4,21.2-23.9,24.6-40.1c5.6-26.1,5.7-52.7,3.4-79.1
		C124.1,122.3,121.5,105.8,117.7,89.7z M20.9,140.8c-9.4-7.5-10.1-17.5-1.9-26.3c5.5-6,12.6-9.1,20.4-10.8c2.6-0.6,5.2-1,8.6-1.6h0
		c-1-2.6-1.7-4.6-2.4-6.6c-6-16.1,4.5-32,21.7-32.9c16-0.9,28.2,5.6,34,20.8c4.3,11.5,7.3,23.4,8.9,35.6c1.9,13.4,1.8,27.2,2.4,40.8
		c0,1.2-0.1,2.5-0.4,3.7c-8-2.6-15.6-5.9-23.4-7.3c-14.7-2.6-29.6-4.1-44.4-6.2C35.8,148.8,27.7,146.3,20.9,140.8z M112.6,186.7
		c-0.9,14.7-2,29.2-8.2,42.9c-7.9,17.4-25,26.1-42.4,21.6c-16-4.1-21.8-15.8-15.4-31.1c0.4-1.1,0.9-2.2,1.6-4l0,0
		c-4.1-0.8-7.7-1.4-11.2-2.2c-7.4-1.7-14.2-4.8-19.3-10.6c-6.4-7.2-5.8-14.5,1.9-20.6c8.4-6.7,18.3-10.2,28.8-11.8
		c19.7-3.1,39.8-0.9,58.3,6.6C111.2,179.3,112.9,181.7,112.6,186.7z"/>
	<linearGradient id="SVGID_3_" gradientUnits="userSpaceOnUse" x1="56.4146" y1="31.4439" x2="124.06" y2="31.4439">
		<stop  offset="0.2123" style="stop-color:#E788BC"/>
		<stop  offset="1" style="stop-color:#F75C9E"/>
	</linearGradient>
	<path class="st2" d="M72,18.4c1.5-0.8,3.3-1.1,5-0.8c14,4.2,26.6,11.1,35.1,23.3c4.9,7,8.3,15,12,22c-0.1-0.8-0.2-2.5-0.5-4.2
		c-4.4-24.9-19.5-40.4-43-48.4c-1.9-0.7-3.5-2-4.6-3.7c-3.2-5.8-8.9-8.1-14.2-5.4c0,0,0,0,0,0C57,3.6,55,9.6,57.5,14.4
		C60.1,19.8,66.1,21.3,72,18.4z"/>
	<linearGradient id="SVGID_4_" gradientUnits="userSpaceOnUse" x1="142.66" y1="31.9156" x2="210.1386" y2="31.9156">
		<stop  offset="0" style="stop-color:#F75C9E"/>
		<stop  offset="1" style="stop-color:#E788BC"/>
	</linearGradient>
	<path class="st3" d="M187.3,18.3c3-1.1,5.3-1.3,8.3,0.4c5.1,3,11,0.8,13.5-4.3c2.4-4.8,0.6-10.7-4.2-13.3
		c-5.1-2.6-10.6-0.6-13.7,4.4c-1.3,2.1-3.7,3.7-6,5.1c-1.9,1.2-4.4,1.6-6.5,2.5c-22,9.8-33.8,27-36.1,50.6
		C153.8,36.9,163.9,26.7,187.3,18.3z"/>
</g>
</svg>
